<svg width="24" height="24" viewBox="0 0 24 24" fill="none" xmlns="http://www.w3.org/2000/svg">
<path fill-rule="evenodd" clip-rule="evenodd" d="M15.0253 8.86044L16.7618 18.7085C16.9536 19.7963 16.2273 20.8336 15.1395 21.0254L5.29139 22.7619C4.2036 22.9537 3.16628 22.2274 2.97448 21.1396L1.23799 11.2915C1.04619 10.2037 1.77252 9.1664 2.86031 8.9746L12.7084 7.23812C13.7962 7.04631 14.8335 7.77265 15.0253 8.86044ZM7.95517 11.3778L7.28169 13.7801L5.22669 14.5964C4.90727 14.7233 4.84727 15.1491 5.11924 15.3589L6.86902 16.7085L6.87065 16.7274L7.01024 18.9121C7.03219 19.2547 7.41899 19.4431 7.70291 19.2496L9.52967 18.0042L9.55027 18.0089L11.6721 18.5499C12.0051 18.6347 12.3041 18.3254 12.2076 17.996L11.5867 15.8767L12.7693 14.01C12.9531 13.7198 12.7511 13.3403 12.4075 13.3303L10.1974 13.266L10.1862 13.251L8.74296 11.2389C8.52617 10.9367 8.05555 11.0197 7.95517 11.3778ZM11.2914 1.23812L21.1395 2.9746C22.2273 3.1664 22.9536 4.20372 22.7618 5.29151L21.0253 15.1396C20.8335 16.2274 19.7962 16.9537 18.7084 16.7619L18.4409 16.7144L16.9949 8.51314C16.6113 6.33756 14.5367 4.88489 12.3611 5.2685L8.42794 5.9614L8.97448 2.86044C9.16628 1.77265 10.2036 1.04631 11.2914 1.23812Z" fill="#DBCBF5"/>
</svg>
