<svg width="24" height="24" viewBox="0 0 24 24" fill="none" xmlns="http://www.w3.org/2000/svg">
<path d="M12 1C18.0566 1 23 5.40744 23 10.8816C23 13.6842 21.6914 16.3156 19.4411 18.1596L19.1472 18.3936C19.1321 18.4075 19.1212 18.4252 19.1157 18.4446L19.1115 18.4747L19.1111 21.4685C19.111 22.2466 18.2705 22.7119 17.6194 22.3396L17.5233 22.2774L14.9878 20.4353C14.9613 20.4161 14.9275 20.4094 14.8955 20.4172C13.9561 20.6469 12.9848 20.7632 12 20.7632C5.94341 20.7632 1 16.3557 1 10.8816C1 5.40744 5.94341 1 12 1ZM12 2C6.45993 2 2 5.99713 2 10.8816C2 15.766 6.45993 19.7632 12 19.7632C12.9044 19.7632 13.796 19.6566 14.658 19.4458C14.9301 19.3793 15.2156 19.4182 15.4581 19.5517L15.5756 19.6263L18.1111 21.4684L18.1115 18.4746C18.1115 18.2073 18.208 17.9507 18.4086 17.7261L18.5177 17.6167L18.5774 17.5687C20.7531 15.8946 22 13.4576 22 10.8816C22 5.99713 17.5401 2 12 2ZM8 10C8.55228 10 9 10.4477 9 11C9 11.5523 8.55228 12 8 12C7.44772 12 7 11.5523 7 11C7 10.4477 7.44772 10 8 10ZM12 10C12.5523 10 13 10.4477 13 11C13 11.5523 12.5523 12 12 12C11.4477 12 11 11.5523 11 11C11 10.4477 11.4477 10 12 10ZM16 10C16.5523 10 17 10.4477 17 11C17 11.5523 16.5523 12 16 12C15.4477 12 15 11.5523 15 11C15 10.4477 15.4477 10 16 10Z" fill="#522699"/>
</svg>
