<svg width="24" height="24" viewBox="0 0 24 24" fill="none" xmlns="http://www.w3.org/2000/svg">
<path fill-rule="evenodd" clip-rule="evenodd" d="M9 5.5C9 4.11929 10.1193 3 11.5 3H17.5C18.8807 3 20 4.11929 20 5.5V13.5C20 14.8807 18.8807 16 17.5 16H17V18.5C17 19.8807 15.8807 21 14.5 21H6.5C5.11929 21 4 19.8807 4 18.5V8.5C4 7.11929 5.11929 6 6.5 6H9V5.5ZM10 6H14.5C15.8807 6 17 7.11929 17 8.5V15H17.5C18.3284 15 19 14.3284 19 13.5V5.5C19 4.67157 18.3284 4 17.5 4H11.5C10.6716 4 10 4.67157 10 5.5V6ZM5 8.5C5 7.67157 5.67157 7 6.5 7H14.5C15.3284 7 16 7.67157 16 8.5V18.5C16 19.3284 15.3284 20 14.5 20H6.5C5.67157 20 5 19.3284 5 18.5V8.5Z" fill="#522699"/>
</svg>
