<svg width="16" height="16" viewBox="0 0 16 16" fill="none" xmlns="http://www.w3.org/2000/svg">
<circle cx="8" cy="8" r="8" fill="#DBCBF5"/>
<path fill-rule="evenodd" clip-rule="evenodd" d="M11.6783 5.49232C12.0201 5.15188 12.0211 4.59883 11.6807 4.25705C11.3403 3.91527 10.7872 3.91418 10.4454 4.25462L7.96354 6.72679L5.56755 4.33079C5.22643 3.98968 4.67338 3.98968 4.33227 4.33079C3.99115 4.6719 3.99115 5.22495 4.33227 5.56607L6.72584 7.95964L4.25693 10.4189C3.91514 10.7593 3.91406 11.3124 4.2545 11.6542C4.59494 11.9959 5.148 11.997 5.48978 11.6566L7.96112 9.19492L10.5087 11.7425C10.8498 12.0836 11.4028 12.0836 11.7439 11.7425C12.0851 11.4013 12.0851 10.8483 11.7439 10.5072L9.19882 7.96207L11.6783 5.49232Z" fill="white"/>
</svg>
