<svg width="24" height="24" viewBox="0 0 24 24" fill="none" xmlns="http://www.w3.org/2000/svg">
<path d="M13.3789 1.5506L13.4461 1.61759L17 5.332V4C17 3.44772 17.4477 3 18 3H19C19.5523 3 20 3.44772 20 4V8.468L22.7238 11.3157C23.1048 11.714 23.0898 12.3448 22.6902 12.7246C22.5043 12.9014 22.2573 13 22.0003 13H20.002L20.0028 19C20.0028 20.1046 19.1074 21 18.0028 21H15V15C15 14.4872 14.614 14.0645 14.1166 14.0067L14 14H10C9.48716 14 9.06449 14.386 9.00673 14.8834L9 15V21H6.00281C4.89824 21 4.00281 20.1046 4.00281 19L4.002 13H1.99967C1.44757 13 1 12.5538 1 12.0035C1 11.7474 1.09889 11.5011 1.27617 11.3158L10.5522 1.61771C11.3142 0.821063 12.5798 0.791018 13.3789 1.5506Z" fill="#FF9D9D"/>
</svg>
