<svg width="24" height="24" viewBox="0 0 24 24" fill="none" xmlns="http://www.w3.org/2000/svg">
<path d="M16 2C16.5523 2 17 2.44772 17 3C17 3.55228 16.5523 4 16 4H15L15.0006 6.48386C18.4959 7.65088 21 10.7993 21 14.5C21 19.1944 16.9706 23 12 23C7.02944 23 3 19.1944 3 14.5C3 10.7989 5.50462 7.65029 9.00042 6.48353L9 4H8C7.44772 4 7 3.55228 7 3C7 2.44772 7.44772 2 8 2H16ZM18.9795 15.0008C16.9932 13.6669 14.6667 13.6669 12 15.0008C9.33333 16.3347 7.00682 16.3347 5.02047 15.0008C5.29585 18.3567 8.31548 21 12 21C15.6845 21 18.7042 18.3567 18.9795 15.0008Z" fill="#A784F3"/>
</svg>
