<svg width="32" height="32" viewBox="0 0 32 32" fill="none" xmlns="http://www.w3.org/2000/svg">
<path d="M12.999 8.9996L13 15.3217C13 16.5096 13.1316 17.1913 13.5123 17.9031C13.8752 18.5816 14.4184 19.1248 15.0969 19.4877C15.8087 19.8684 16.4904 20 17.6783 20L24 19.9996V22.8046C24 24.2634 23.8481 24.7924 23.5629 25.3257C23.2776 25.8591 22.8591 26.2776 22.3257 26.5629C21.7924 26.8481 21.2634 27 19.8046 27H10.1954C8.7366 27 8.20759 26.8481 7.67425 26.5629C7.14092 26.2776 6.72236 25.8591 6.43713 25.3257C6.1519 24.7924 6 24.2634 6 22.8046V13.1954C6 11.7366 6.1519 11.2076 6.43713 10.6743C6.72236 10.1409 7.14092 9.72236 7.67425 9.43713C8.20759 9.1519 8.7366 9 10.1954 9L12.999 8.9996ZM24.203 6C25.1756 6 25.5283 6.10126 25.8838 6.29142C26.2394 6.48157 26.5184 6.76061 26.7086 7.11617C26.8987 7.47172 27 7.8244 27 8.79697V15.203C27 16.1756 26.8987 16.5283 26.7086 16.8838C26.5184 17.2394 26.2394 17.5184 25.8838 17.7086C25.5283 17.8987 25.1756 18 24.203 18H17.797C16.8244 18 16.4717 17.8987 16.1162 17.7086C15.7606 17.5184 15.4816 17.2394 15.2914 16.8838C15.1013 16.5283 15 16.1756 15 15.203V8.79697C15 7.8244 15.1013 7.47172 15.2914 7.11617C15.4816 6.76061 15.7606 6.48157 16.1162 6.29142C16.4717 6.10126 16.8244 6 17.797 6H24.203Z" fill="#DBCBF5"/>
</svg>
