<svg width="96" height="96" viewBox="0 0 96 96" fill="none" xmlns="http://www.w3.org/2000/svg">
<path d="M38 18.6665C19.2223 18.6665 4 33.8888 4 52.6665C4 71.4442 19.2223 86.6665 38 86.6665C56.7777 86.6665 72 71.4442 72 52.6665C72 33.8888 56.7777 18.6665 38 18.6665Z" fill="#EDE5FA"/>
<path fill-rule="evenodd" clip-rule="evenodd" d="M70.3431 11.6764C71.7887 10.2309 73.7914 9.33325 76 9.33325C78.2086 9.33325 80.2113 10.2309 81.6569 11.6764C83.1024 13.1219 84 15.1247 84 17.3333C84 19.5418 83.1024 21.5446 81.6569 22.9901C80.2113 24.4356 78.2086 25.3333 76 25.3333C73.7914 25.3333 71.7887 24.4356 70.3431 22.9901C68.8976 21.5446 68 19.5418 68 17.3333C68 15.1247 68.8976 13.1219 70.3431 11.6764ZM76 13.3333C74.8949 13.3333 73.8976 13.7788 73.1716 14.5048C72.4455 15.2309 72 16.2281 72 17.3333C72 18.4384 72.4455 19.4356 73.1716 20.1617C73.8976 20.8877 74.8949 21.3333 76 21.3333C77.1051 21.3333 78.1024 20.8877 78.8284 20.1617C79.5545 19.4356 80 18.4384 80 17.3333C80 16.2281 79.5545 15.2309 78.8284 14.5048C78.1024 13.7788 77.1051 13.3333 76 13.3333Z" fill="#FFBB00"/>
<path d="M26.9693 49.5027C28.1116 49.5027 29.1025 49.3611 29.942 49.0778C30.7816 48.7945 31.4318 48.3557 31.8929 47.7614C32.354 47.1671 32.5845 46.3932 32.5845 45.4396C32.5845 44.6934 32.4262 44.0576 32.1097 43.5325C31.7931 43.0073 31.3665 42.5789 30.8297 42.2472C30.5077 42.0482 30.1621 41.8815 29.793 41.7472L29.6819 41.7124L29.9971 41.5539C30.4375 41.3113 30.8045 41.0103 31.0981 40.651C31.5385 40.112 31.7587 39.4555 31.7587 38.6816C31.7587 38.0597 31.6314 37.5207 31.3768 37.0647C31.1222 36.6086 30.7712 36.2251 30.3239 35.9142C29.8766 35.6032 29.3365 35.3717 28.7034 35.2197C28.0703 35.0677 27.3821 34.9917 26.6389 34.9917H21.3334V49.5027H26.9693ZM24.8016 37.7073H26.2467C26.8523 37.7073 27.3202 37.8351 27.6505 38.0908C27.9808 38.3465 28.146 38.7162 28.146 39.1999C28.146 39.5177 28.0703 39.7941 27.9189 40.0291C27.7675 40.264 27.5507 40.4437 27.2686 40.5681C26.9865 40.6924 26.6458 40.7546 26.2467 40.7546L24.8016 40.7567V37.7073ZM26.577 46.7871H24.8016V43.2008H26.577C26.9073 43.2008 27.2204 43.2319 27.5163 43.2941C27.8122 43.3563 28.0668 43.4565 28.2802 43.5947C28.4935 43.7329 28.6621 43.9091 28.7859 44.1233C28.9098 44.3375 28.9717 44.6035 28.9717 44.9214C28.9717 45.3774 28.8651 45.7437 28.6518 46.0201C28.4384 46.2965 28.1529 46.4934 27.795 46.6109C27.4372 46.7284 27.0312 46.7871 26.577 46.7871ZM38.1378 49.7308C38.8397 49.7308 39.428 49.5822 39.9029 49.2851C40.3777 48.9879 40.7596 48.5837 41.0486 48.0724V49.5027H44.1659V39.9669H41.0486V45.7713C41.0486 46.1306 40.9764 46.4416 40.8319 46.7042C40.6873 46.9668 40.4912 47.1671 40.2435 47.3053C39.9958 47.4435 39.7067 47.5126 39.3764 47.5126C39.0599 47.5126 38.8018 47.4435 38.6023 47.3053C38.4027 47.1671 38.2548 46.9668 38.1584 46.7042C38.0621 46.4416 38.0139 46.1306 38.0139 45.7713V39.9669H34.7108V46.0823C34.7108 46.8424 34.8347 47.4954 35.0824 48.0413C35.3302 48.5872 35.7052 49.0052 36.2075 49.2954C36.7099 49.5857 37.3533 49.7308 38.1378 49.7308ZM52.9397 49.71C53.7104 49.71 54.4398 49.52 55.128 49.14C55.8161 48.7599 56.377 48.1967 56.8105 47.4505C57.244 46.7042 57.4608 45.799 57.4608 44.7348C57.4608 43.6568 57.244 42.7482 56.8105 42.0088C56.377 41.2694 55.8161 40.7097 55.128 40.3297C54.4398 39.9496 53.7104 39.7596 52.9397 39.7596C52.3479 39.7596 51.8043 39.8736 51.3088 40.1016C50.8133 40.3297 50.3832 40.6579 50.0185 41.0863L49.8088 41.3546L49.6985 41.5216V33.3333H46.5813V49.5027H49.6985V47.9811L49.7886 48.1151C49.8552 48.2082 49.9249 48.2976 49.9979 48.3833C50.3626 48.8117 50.7961 49.14 51.2985 49.368C51.8008 49.596 52.3479 49.71 52.9397 49.71ZM51.9075 47.181C51.646 47.181 51.3845 47.1257 51.123 47.0151C50.8615 46.9046 50.6241 46.7456 50.4108 46.5383C50.1975 46.331 50.0254 46.0754 49.8947 45.7713C49.7639 45.4673 49.6985 45.1218 49.6985 44.7348C49.6985 44.3478 49.7605 44.0023 49.8843 43.6983C50.0082 43.3943 50.1802 43.1386 50.4005 42.9313C50.6207 42.724 50.8615 42.5651 51.123 42.4545C51.3845 42.3439 51.646 42.2887 51.9075 42.2887C52.3204 42.2887 52.6954 42.3889 53.0326 42.5892C53.3698 42.7896 53.6416 43.0729 53.848 43.4392C54.0545 43.8054 54.1577 44.2373 54.1577 44.7348C54.1577 45.2323 54.0545 45.6642 53.848 46.0304C53.6416 46.3967 53.3698 46.68 53.0326 46.8804C52.6954 47.0808 52.3204 47.181 51.9075 47.181ZM65.6772 49.71C66.4479 49.71 67.1773 49.52 67.8655 49.14C68.5536 48.7599 69.1144 48.1967 69.548 47.4505C69.9815 46.7042 70.1983 45.799 70.1983 44.7348C70.1983 43.6568 69.9815 42.7482 69.548 42.0088C69.1144 41.2694 68.5536 40.7097 67.8655 40.3297C67.1773 39.9496 66.4479 39.7596 65.6772 39.7596C65.0854 39.7596 64.5418 39.8736 64.0463 40.1016C63.5508 40.3297 63.1207 40.6579 62.756 41.0863L62.5463 41.3546L62.436 41.5216V33.3333H59.3188V49.5027H62.436V47.9811L62.5261 48.1151C62.5927 48.2082 62.6624 48.2976 62.7354 48.3833C63.1001 48.8117 63.5336 49.14 64.036 49.368C64.5383 49.596 65.0854 49.71 65.6772 49.71ZM64.645 47.181C64.3835 47.181 64.122 47.1257 63.8605 47.0151C63.599 46.9046 63.3616 46.7456 63.1483 46.5383C62.9349 46.331 62.7629 46.0754 62.6322 45.7713C62.5014 45.4673 62.436 45.1218 62.436 44.7348C62.436 44.3478 62.498 44.0023 62.6218 43.6983C62.7457 43.3943 62.9177 43.1386 63.1379 42.9313C63.3581 42.724 63.599 42.5651 63.8605 42.4545C64.122 42.3439 64.3835 42.2887 64.645 42.2887C65.0579 42.2887 65.4329 42.3889 65.7701 42.5892C66.1073 42.7896 66.3791 43.0729 66.5855 43.4392C66.792 43.8054 66.8952 44.2373 66.8952 44.7348C66.8952 45.2323 66.792 45.6642 66.5855 46.0304C66.3791 46.3967 66.1073 46.68 65.7701 46.8804C65.4329 47.0808 65.0579 47.181 64.645 47.181ZM75.2148 49.5027V33.3333H72.0563V49.5027H75.2148ZM82.5022 49.71C83.7134 49.71 84.7387 49.4751 85.5782 49.0052C86.4178 48.5353 87.0921 47.8305 87.6014 46.8907L84.7937 46.2066C84.5735 46.6213 84.2639 46.9322 83.8648 47.1395C83.4656 47.3468 82.9908 47.4505 82.4403 47.4505C81.9724 47.4505 81.5698 47.3399 81.2326 47.1188C80.8954 46.8977 80.6443 46.5832 80.4791 46.1756C80.413 46.0125 80.3613 45.8356 80.3239 45.6449L80.285 45.3982H87.5394C87.5532 45.2876 87.5601 45.1632 87.5601 45.025V44.5897C87.5601 43.567 87.3605 42.6964 86.9614 41.9777C86.5623 41.2591 85.9842 40.7097 85.2273 40.3297C84.4703 39.9496 83.5413 39.7596 82.4403 39.7596C81.6145 39.7596 80.8713 39.8736 80.2107 40.1016C79.5501 40.3297 78.9858 40.6579 78.5179 41.0863C78.05 41.5147 77.6956 42.0364 77.4547 42.6514C77.2139 43.2664 77.0934 43.9609 77.0934 44.7348C77.0934 45.7437 77.3137 46.6213 77.7541 47.3675C78.1945 48.1138 78.8172 48.6908 79.6224 49.0985C80.4275 49.5062 81.3874 49.71 82.5022 49.71ZM41.1864 60.6828C42.2269 60.6828 43.1564 60.8903 43.9749 61.3055C44.7935 61.7206 45.4421 62.3018 45.9207 63.049C46.3993 63.7962 46.6386 64.6749 46.6386 65.6851C46.6386 66.6814 46.3993 67.5531 45.9207 68.3004C45.4421 69.0476 44.7935 69.6288 43.9749 70.0439C43.1564 70.459 42.2199 70.6666 41.1656 70.6666C40.125 70.6666 39.192 70.459 38.3666 70.0439C37.5411 69.6288 36.889 69.0476 36.4104 68.3004C35.9318 67.5531 35.6925 66.6814 35.6925 65.6851C35.6925 64.6749 35.9318 63.7962 36.4104 63.049C36.889 62.3018 37.5446 61.7206 38.377 61.3055C39.2094 60.8903 40.1458 60.6828 41.1864 60.6828ZM53.4436 60.6828C54.4841 60.6828 55.4136 60.8903 56.2322 61.3055C57.0507 61.7206 57.6993 62.3018 58.1779 63.049C58.6566 63.7962 58.8959 64.6749 58.8959 65.6851C58.8959 66.6814 58.6566 67.5531 58.1779 68.3004C57.6993 69.0476 57.0507 69.6288 56.2322 70.0439C55.4136 70.459 54.4772 70.6666 53.4228 70.6666C52.3823 70.6666 51.4493 70.459 50.6238 70.0439C49.7983 69.6288 49.1463 69.0476 48.6677 68.3004C48.189 67.5531 47.9497 66.6814 47.9497 65.6851C47.9497 64.6749 48.189 63.7962 48.6677 63.049C49.1463 62.3018 49.8018 61.7206 50.6342 61.3055C51.4666 60.8903 52.4031 60.6828 53.4436 60.6828ZM71.1739 54.2691V70.459H68.0316L68.0295 68.948L67.9479 69.0696L67.7298 69.3382C67.3483 69.7671 66.9078 70.0958 66.4084 70.3241C65.9089 70.5524 65.354 70.6666 64.7436 70.6666C63.9528 70.6666 63.214 70.4763 62.5273 70.0958C61.8405 69.7152 61.2821 69.1514 60.8521 68.4041C60.422 67.6569 60.2069 66.7506 60.2069 65.6851C60.2069 64.6057 60.422 63.6959 60.8521 62.9556C61.2821 62.2153 61.8405 61.6549 62.5273 61.2743C63.214 60.8938 63.9528 60.7035 64.7436 60.7035C65.354 60.7035 65.9124 60.8177 66.4188 61.046C66.9252 61.2743 67.3657 61.603 67.7403 62.0319C67.8152 62.1177 67.8866 62.2073 67.9546 62.3005L68.0295 62.4139L68.0316 54.2691H71.1739ZM84.0555 60.7035C85.1654 60.7035 86.1018 60.8938 86.8649 61.2743C87.6279 61.6549 88.2106 62.2049 88.6129 62.9245C89.0153 63.644 89.2164 64.5158 89.2164 65.5398V65.9757C89.2164 66.114 89.2095 66.2386 89.1956 66.3493H81.8829L81.922 66.5963C81.9598 66.7872 82.0119 66.9643 82.0785 67.1276C82.245 67.5358 82.4982 67.8506 82.8381 68.072C83.178 68.2934 83.5838 68.4041 84.0555 68.4041C84.6104 68.4041 85.0891 68.3004 85.4914 68.0928C85.8937 67.8852 86.2059 67.5739 86.4279 67.1588L89.2581 67.8437C88.7447 68.7847 88.0649 69.4904 87.2187 69.9609C86.3724 70.4313 85.3388 70.6666 84.1179 70.6666C82.9942 70.6666 82.0265 70.4625 81.2149 70.0543C80.4033 69.6461 79.7755 69.0683 79.3316 68.3211C78.8876 67.5739 78.6656 66.6952 78.6656 65.6851C78.6656 64.9102 78.787 64.2148 79.0298 63.599C79.2726 62.9833 79.6298 62.4609 80.1015 62.0319C80.5732 61.603 81.1421 61.2743 81.808 61.046C82.4739 60.8177 83.2231 60.7035 84.0555 60.7035ZM26.5151 55.9296C27.7083 55.9296 28.7834 56.0991 29.7407 56.4381C30.698 56.7771 31.52 57.2614 32.2067 57.8911C32.8935 58.5207 33.4172 59.2817 33.7779 60.1742C34.1386 61.0668 34.319 62.0735 34.319 63.1943C34.319 64.3151 34.1386 65.3218 33.7779 66.2143C33.4172 67.1069 32.8935 67.8679 32.2067 68.4975C31.52 69.1272 30.698 69.6115 29.7407 69.9505C28.7834 70.2895 27.7083 70.459 26.5151 70.459H21.3334V55.9296H26.5151ZM76.7719 54.2691V70.459H73.5879V54.2691H76.7719ZM65.8049 63.2358C65.3887 63.2358 65.0072 63.3361 64.6603 63.5368C64.3135 63.7374 64.036 64.0211 63.8279 64.3878C63.6198 64.7545 63.5158 65.1869 63.5158 65.6851C63.5158 66.1832 63.6198 66.6156 63.8279 66.9823C64.036 67.349 64.3135 67.6327 64.6603 67.8333C65.0072 68.034 65.3956 68.1343 65.8257 68.1343C66.0754 68.1343 66.3321 68.079 66.5957 67.9683C66.8593 67.8576 67.0986 67.695 67.3136 67.4805C67.5287 67.266 67.7021 67.01 67.8339 66.7125C67.9657 66.415 68.0316 66.0725 68.0316 65.6851C68.0316 65.2976 67.9657 64.9517 67.8339 64.6472C67.7021 64.3428 67.5287 64.0868 67.3136 63.8793C67.0986 63.6717 66.8593 63.5126 66.5957 63.4019C66.3321 63.2912 66.0685 63.2358 65.8049 63.2358ZM41.1656 63.2773C40.7632 63.2773 40.3921 63.3742 40.0522 63.5679C39.7123 63.7616 39.4418 64.0384 39.2406 64.3982C39.0394 64.7579 38.9389 65.1869 38.9389 65.6851C38.9389 66.1555 39.0394 66.5741 39.2406 66.9408C39.4418 67.3075 39.7123 67.5877 40.0522 67.7815C40.3921 67.9752 40.7632 68.072 41.1656 68.072C41.5818 68.072 41.9563 67.9752 42.2893 67.7815C42.6223 67.5877 42.8859 67.311 43.0801 66.9512C43.2743 66.5914 43.3714 66.1694 43.3714 65.6851C43.3714 65.1869 43.2743 64.7579 43.0801 64.3982C42.8859 64.0384 42.6223 63.7616 42.2893 63.5679C41.9563 63.3742 41.5818 63.2773 41.1656 63.2773ZM53.4228 63.2773C53.0205 63.2773 52.6493 63.3742 52.3094 63.5679C51.9695 63.7616 51.699 64.0384 51.4978 64.3982C51.2967 64.7579 51.1961 65.1869 51.1961 65.6851C51.1961 66.1555 51.2967 66.5741 51.4978 66.9408C51.699 67.3075 51.9695 67.5877 52.3094 67.7815C52.6493 67.9752 53.0205 68.072 53.4228 68.072C53.839 68.072 54.2136 67.9752 54.5466 67.7815C54.8795 67.5877 55.1431 67.311 55.3373 66.9512C55.5316 66.5914 55.6287 66.1694 55.6287 65.6851C55.6287 65.1869 55.5316 64.7579 55.3373 64.3982C55.1431 64.0384 54.8795 63.7616 54.5466 63.5679C54.2136 63.3742 53.839 63.2773 53.4228 63.2773ZM26.4111 59.0638H24.9752V67.3248H26.4111C26.966 67.3248 27.5001 67.2556 28.0135 67.1172C28.5268 66.9789 28.9811 66.7506 29.3765 66.4323C29.7719 66.114 30.0876 65.6885 30.3234 65.1558C30.5593 64.623 30.6772 63.9692 30.6772 63.1943C30.6772 62.4194 30.5593 61.7656 30.3234 61.2328C30.0876 60.7001 29.7719 60.2746 29.3765 59.9563C28.9811 59.638 28.5268 59.4097 28.0135 59.2714C27.5001 59.133 26.966 59.0638 26.4111 59.0638ZM84.0139 62.7999C83.6532 62.7999 83.3375 62.8587 83.067 62.9764C82.7965 63.094 82.571 63.2704 82.3907 63.5056C82.2103 63.7409 82.0751 64.0349 81.9849 64.3878L81.937 64.6057H85.814L85.8114 64.5247C85.7853 64.2276 85.7203 63.9675 85.6163 63.7443C85.4775 63.4468 85.266 63.2151 84.9816 63.049C84.6971 62.883 84.3746 62.7999 84.0139 62.7999ZM82.399 41.8533C82.7568 41.8533 83.0768 41.9362 83.359 42.1021C83.6411 42.2679 83.851 42.4994 83.9886 42.7965C84.0918 43.0194 84.1564 43.2792 84.1822 43.5759L84.1847 43.6568H80.3387L80.3862 43.4392C80.4757 43.0868 80.6098 42.7931 80.7888 42.5582C80.9677 42.3232 81.1913 42.147 81.4597 42.0295C81.7281 41.9121 82.0412 41.8533 82.399 41.8533Z" fill="#522699"/>
</svg>
