<svg width="72" height="72" viewBox="0 0 72 72" fill="none" xmlns="http://www.w3.org/2000/svg">
<g clip-path="url(#clip0)">
<path d="M47.0833 16C50.2129 16 52.75 18.5371 52.75 21.6667V44.3333C52.75 47.4629 50.2129 50 47.0833 50H24.4167C21.2871 50 18.75 47.4629 18.75 44.3333V21.6667C18.75 18.5371 21.2871 16 24.4167 16H47.0833Z" fill="url(#paint0_radial)"/>
<path d="M29.25 43.05C30.243 43.05 31.2127 43.2422 32.1138 43.614L32.4484 43.7619L32.689 43.882L32.8001 43.7804C32.9967 43.6152 33.2225 43.4838 33.4705 43.392L33.6606 43.3306L33.8584 43.2847L34.0753 43.2572L34.25 43.25C35.3673 43.25 36.3039 44.0674 36.4743 45.1724L36.4934 45.3321L36.5 45.5V54.5C36.5 55.7426 35.4926 56.75 34.25 56.75C33.7693 56.75 33.3095 56.5971 32.9239 56.3145L32.7828 56.2025L32.691 56.117L32.3838 56.2687C31.8397 56.5192 31.2638 56.7031 30.6658 56.8167L30.3043 56.8763L29.938 56.9189L29.5727 56.9431L29.25 56.95C25.2524 56.95 22 53.8453 22 50C22 46.1547 25.2524 43.05 29.25 43.05ZM41.25 39.25C42.3673 39.25 43.3039 40.0674 43.4743 41.1724L43.4934 41.3321L43.5 41.5002L43.498 43.569L43.5618 43.5436C43.979 43.3841 44.412 43.262 44.8575 43.1789L45.1939 43.1239L45.5347 43.0836L45.9161 43.0574L46.25 43.05C50.2476 43.05 53.5 46.1547 53.5 50C53.5 53.8453 50.2476 56.95 46.25 56.95C45.257 56.95 44.2873 56.7578 43.3857 56.3856L43.0509 56.2377L42.81 56.117L42.6999 56.2196C42.5033 56.3848 42.2775 56.5162 42.0295 56.608L41.8394 56.6694L41.6416 56.7153L41.4247 56.7428L41.25 56.75C40.1327 56.75 39.1961 55.9326 39.0257 54.8276L39.0066 54.6679L39 54.5V41.5C39 40.2574 40.0074 39.25 41.25 39.25ZM58.25 52.25C59.4926 52.25 60.5 53.2574 60.5 54.5C60.5 55.7426 59.4926 56.75 58.25 56.75C57.0074 56.75 56 55.7426 56 54.5C56 53.2574 57.0074 52.25 58.25 52.25ZM13.25 38.25C14.3532 38.25 15.2906 39.05 15.4737 40.1609L15.4955 40.3623L15.5004 40.5184L15.5 48.8067C15.5 49.7439 15.6242 50.3616 15.902 50.881C16.128 51.3037 16.4463 51.622 16.869 51.8481C17.2885 52.0724 17.7668 52.1944 18.4072 52.2343L18.6687 52.2463L19.25 52.25C20.4927 52.25 21.5 53.2574 21.5 54.5C21.5 55.6031 20.7 56.5406 19.5891 56.7236L19.3877 56.7454L19.2308 56.7503L18.9433 56.75C17.2739 56.75 15.9451 56.4571 14.7468 55.8162C13.5399 55.1708 12.5793 54.2101 11.9338 53.0032C11.3892 51.9849 11.097 50.8738 11.0201 49.536L11.005 49.1731L11 48.7999V40.5C11 39.2574 12.0074 38.25 13.25 38.25ZM29.25 46.95C27.7434 46.95 26.5 48.3025 26.5 50C26.5 51.6975 27.7434 53.05 29.25 53.05C30.7566 53.05 32 51.6975 32 50C32 48.3025 30.7566 46.95 29.25 46.95ZM46.25 46.95C44.7434 46.95 43.5 48.3025 43.5 50C43.5 51.6975 44.7434 53.05 46.25 53.05C47.7566 53.05 49 51.6975 49 50C49 48.3025 47.7566 46.95 46.25 46.95ZM53.7355 23.2502L53.9823 23.254C57.6071 23.3802 60.5 26.4463 60.5 30.2111L60.4954 30.4467C60.4941 30.4763 60.4934 30.4911 60.4926 30.4944L60.4887 30.473L60.4974 30.5941L60.5 30.7V48.7C60.5 49.9426 59.4926 50.95 58.25 50.95C57.0795 50.95 56.1073 50.0529 56.0066 48.8679L56 48.7V29.7C56 28.2772 54.9781 27.15 53.75 27.15C52.6209 27.15 51.6491 28.1089 51.5171 29.379L51.5045 29.5314L51.5 29.7V34.7C51.5 35.9426 50.4926 36.95 49.25 36.95C48.0795 36.95 47.1073 36.0529 47.0066 34.8679L47 34.7V25.7C47 24.4574 48.0074 23.45 49.25 23.45C49.8444 23.45 50.409 23.6836 50.8482 24.1167L50.711 23.992L50.9689 23.8655C51.443 23.6446 51.9416 23.4812 52.4589 23.378L52.7714 23.3233L53.0881 23.2833L53.442 23.2573L53.7355 23.2502ZM38.25 23.05C42.2476 23.05 45.5 26.1547 45.5 30C45.5 33.8453 42.2476 36.95 38.25 36.95C34.2524 36.95 31 33.8453 31 30C31 26.1547 34.2524 23.05 38.25 23.05ZM19.2403 25.1205C22.1805 22.3254 26.8965 22.3652 29.7861 25.2098C30.6689 26.0789 30.6563 27.4862 29.7582 28.34C28.9319 29.1255 27.6342 29.1717 26.7335 28.4388L26.5966 28.3154L26.4936 28.2141L26.4229 28.1305C25.8983 27.3815 25.1026 26.95 24.2503 26.95C22.8554 26.95 21.6684 28.1156 21.518 29.6465L21.5051 29.8079L21.5016 30.065L21.5043 30.1649C21.5825 31.7915 22.799 33.05 24.2503 33.05C25.043 33.05 25.7855 32.6771 26.3152 32.0168L26.4499 31.8383L26.5285 31.7529L26.6994 31.6027C27.5868 30.8853 28.9016 30.9367 29.7271 31.7494C30.61 32.6185 30.5973 34.0257 29.6992 34.8795C26.759 37.6746 22.043 37.6348 19.1534 34.7902C16.25 31.932 16.2861 27.929 19.2403 25.1205ZM13.25 23.25C14.4205 23.25 15.3927 24.1471 15.4934 25.3321L15.5 25.5V34.5C15.5 35.7426 14.4926 36.75 13.25 36.75C12.0795 36.75 11.1073 35.8529 11.0066 34.6679L11 34.5V25.5C11 24.2574 12.0074 23.25 13.25 23.25ZM38.25 26.95C36.7434 26.95 35.5 28.3025 35.5 30C35.5 31.6975 36.7434 33.05 38.25 33.05C39.7566 33.05 41 31.6975 41 30C41 28.3025 39.7566 26.95 38.25 26.95ZM13.25 17.25C14.4926 17.25 15.5 18.2574 15.5 19.5C15.5 20.7426 14.4926 21.75 13.25 21.75C12.0074 21.75 11 20.7426 11 19.5C11 18.2574 12.0074 17.25 13.25 17.25Z" fill="#8D52D7"/>
<g opacity="0.1" filter="url(#filter0_f)">
<path d="M41.25 39.25C41.6101 39.25 41.9515 39.3349 42.2545 39.487C42.3616 39.6981 42.4367 39.9282 42.4743 40.1724L42.4934 40.3321L42.5 40.5002L42.498 42.569L42.5618 42.5436C42.8664 42.4272 43.1794 42.3307 43.4995 42.2547L43.498 43.569L43.5618 43.5436C43.979 43.3841 44.412 43.262 44.8575 43.1789L45.1939 43.1239L45.5347 43.0836L45.9161 43.0574L46.25 43.05C48.0448 43.05 49.6894 43.6758 50.9569 44.7136L51.045 44.8224C51.9582 45.9843 52.5 47.4305 52.5 49C52.5 52.8453 49.2476 55.95 45.25 55.95C44.257 55.95 43.2873 55.7578 42.3857 55.3856L42.0509 55.2377L41.81 55.117L41.6999 55.2196C41.5033 55.3848 41.2775 55.5162 41.0295 55.608L40.8394 55.6694L40.6416 55.7153L40.4247 55.7428L40.25 55.75C39.8899 55.75 39.5485 55.6651 39.2455 55.513C39.1384 55.3019 39.0633 55.0718 39.0257 54.8276L39.0066 54.6679L39 54.5V41.5C39 40.2574 40.0074 39.25 41.25 39.25ZM29.25 43.05C30.243 43.05 31.2127 43.2422 32.1138 43.614L32.4484 43.7619L32.689 43.882L32.8001 43.7804C32.9967 43.6152 33.2225 43.4838 33.4705 43.392L33.6606 43.3306L33.8584 43.2847L34.0753 43.2572L34.25 43.25C34.6101 43.25 34.9515 43.3349 35.2545 43.487C35.3616 43.6981 35.4367 43.9282 35.4743 44.1724L35.4934 44.3321L35.5 44.5V53.5C35.5 54.7426 34.4926 55.75 33.25 55.75C32.7693 55.75 32.3095 55.5971 31.9239 55.3145L31.7828 55.2025L31.691 55.117L31.3838 55.2687C30.8397 55.5192 30.2638 55.7031 29.6658 55.8167L29.3043 55.8763L28.938 55.9189L28.5727 55.9431L28.25 55.95C26.4552 55.95 24.8106 55.3242 23.5431 54.2864L23.455 54.1776C22.5418 53.0157 22 51.5695 22 50C22 46.1547 25.2524 43.05 29.25 43.05ZM13.25 38.25C13.6094 38.25 13.9511 38.3349 14.2549 38.4877C14.3349 38.6467 14.3978 38.817 14.4406 38.9967L14.4737 39.1609L14.4955 39.3623L14.5004 39.5184L14.5 47.8067C14.5 48.7439 14.6242 49.3616 14.902 49.881C15.128 50.3037 15.4463 50.622 15.869 50.8481L15.89 50.8584C15.894 50.866 15.8979 50.8735 15.902 50.881C16.128 51.3037 16.4463 51.622 16.869 51.8481C17.2361 52.0444 17.6481 52.1623 18.1745 52.2155L18.4072 52.2343L18.6687 52.2463L19.25 52.25C19.6137 52.25 19.9572 52.3363 20.2612 52.4895C20.4138 52.7928 20.5 53.1363 20.5 53.5C20.5 54.548 19.778 55.4464 18.7534 55.6906L18.5891 55.7236L18.3877 55.7454L18.2308 55.7503L17.9433 55.75C16.2739 55.75 14.9451 55.4571 13.7468 54.8162C13.3567 54.6076 12.9922 54.366 12.6559 54.0938C12.3841 53.7578 12.1425 53.3934 11.9338 53.0032C11.4387 52.0775 11.1522 51.0751 11.0465 49.8954L11.0201 49.536L11.005 49.1731L11 48.7999V40.5C11 39.2574 12.0074 38.25 13.25 38.25ZM58.25 52.25C58.6137 52.25 58.9572 52.3363 59.2612 52.4895C59.4137 52.7928 59.5 53.1363 59.5 53.5C59.5 54.7426 58.4926 55.75 57.25 55.75C56.8863 55.75 56.5428 55.6637 56.2388 55.5105C56.0863 55.2072 56 54.8637 56 54.5C56 53.2574 57.0074 52.25 58.25 52.25ZM28.25 45.95C26.7434 45.95 25.5 47.3025 25.5 49C25.5 50.1763 26.0971 51.1869 26.9651 51.6967C27.4596 52.5154 28.3027 53.05 29.25 53.05C30.7566 53.05 32 51.6975 32 50C32 48.8237 31.4029 47.8131 30.5349 47.3033C30.0404 46.4846 29.1973 45.95 28.25 45.95ZM45.25 45.95C43.7434 45.95 42.5 47.3025 42.5 49C42.5 50.1763 43.0971 51.1869 43.9651 51.6967C44.4596 52.5154 45.3027 53.05 46.25 53.05C47.7566 53.05 49 51.6975 49 50C49 48.8237 48.4029 47.8131 47.5349 47.3033C47.0404 46.4846 46.1973 45.95 45.25 45.95ZM53.7355 23.2502L53.9823 23.254C55.4683 23.3057 56.8313 23.8516 57.9224 24.737C58.8602 25.8886 59.4422 27.3582 59.4959 28.9666L59.5 29.2111L59.4954 29.4467C59.4945 29.4664 59.4939 29.4796 59.4934 29.4871L59.4926 29.4944L59.4887 29.473L59.4974 29.5941L59.5 29.7V47.7C59.5 48.9426 58.4926 49.95 57.25 49.95C56.8897 49.95 56.5482 49.865 56.2451 49.7128C56.1386 49.5026 56.0634 49.2721 56.0257 49.0276L56.0066 48.8679L56 48.7V29.7C56 28.6567 55.4506 27.7723 54.6732 27.3748C54.2762 26.6375 53.5577 26.15 52.75 26.15C51.6722 26.15 50.7378 27.0237 50.5402 28.2078L50.5171 28.379L50.5045 28.5314L50.5 28.7V33.7C50.5 34.9426 49.4926 35.95 48.25 35.95C47.8897 35.95 47.5482 35.865 47.2451 35.7128C47.1386 35.5026 47.0634 35.2721 47.0257 35.0276L47.0066 34.8679L47 34.7V25.7C47 24.4574 48.0074 23.45 49.25 23.45C49.7784 23.45 50.2832 23.6346 50.6973 23.9798L50.711 23.992L50.9689 23.8655C51.443 23.6446 51.9416 23.4812 52.4589 23.378L52.7714 23.3233L53.0881 23.2833L53.442 23.2573L53.7355 23.2502ZM38.25 23.05C40.0448 23.05 41.6894 23.6758 42.9569 24.7136L43.045 24.8224C43.9582 25.9843 44.5 27.4305 44.5 29C44.5 32.8453 41.2476 35.95 37.25 35.95C35.4552 35.95 33.8106 35.3242 32.5431 34.2864L32.455 34.1776C31.5418 33.0157 31 31.5695 31 30C31 26.1547 34.2524 23.05 38.25 23.05ZM29.1194 24.627L29.1932 24.7575C29.632 25.5949 29.4852 26.6488 28.7582 27.34C27.9857 28.0743 26.8012 28.1626 25.9142 27.572C25.8469 27.514 25.7767 27.4602 25.7046 27.4103L25.5966 27.3154L25.4936 27.2141L25.4229 27.1305C24.8983 26.3815 24.1026 25.95 23.2503 25.95C21.9112 25.95 20.7637 27.0242 20.541 28.4646L20.518 28.6465L20.5051 28.8079L20.5016 29.065L20.5043 29.1649C20.5575 30.2729 21.139 31.2101 21.963 31.695C22.4598 32.5164 23.3053 33.05 24.2503 33.05C24.982 33.05 25.671 32.7322 26.1892 32.164L26.3152 32.0168L26.4499 31.8383L26.5285 31.7529L26.6994 31.6027C27.4015 31.0351 28.3711 30.9487 29.1543 31.3399C29.5679 32.1702 29.4139 33.2001 28.6992 33.8795C25.955 36.4883 21.6639 36.6275 18.7546 34.3217L18.6119 34.204C16.2678 31.4035 16.483 27.7418 19.2403 25.1205C21.964 22.5313 26.2115 22.3747 29.1194 24.627ZM13.25 23.25C13.6103 23.25 13.9518 23.335 14.2549 23.4872C14.3614 23.6974 14.4366 23.9279 14.4743 24.1724L14.4934 24.3321L14.5 24.5V33.5C14.5 34.7426 13.4926 35.75 12.25 35.75C11.8897 35.75 11.5482 35.665 11.2451 35.5128C11.1386 35.3026 11.0634 35.0721 11.0257 34.8276L11.0066 34.6679L11 34.5V25.5C11 24.2574 12.0074 23.25 13.25 23.25ZM37.25 25.95C35.7434 25.95 34.5 27.3025 34.5 29C34.5 30.1763 35.0971 31.1869 35.9651 31.6967C36.4596 32.5154 37.3027 33.05 38.25 33.05C39.7566 33.05 41 31.6975 41 30C41 28.8237 40.4029 27.8131 39.5349 27.3033C39.0404 26.4846 38.1973 25.95 37.25 25.95ZM30.0889 27.9433L30.0819 27.9511C30.1542 27.493 30.2731 27.0497 30.4337 26.6258C30.4643 27.0825 30.3484 27.5451 30.0889 27.9433ZM13.25 17.25C13.6137 17.25 13.9572 17.3363 14.2612 17.4895C14.4137 17.7928 14.5 18.1363 14.5 18.5C14.5 19.7426 13.4926 20.75 12.25 20.75C11.8863 20.75 11.5428 20.6637 11.2388 20.5105C11.0863 20.2072 11 19.8637 11 19.5C11 18.2574 12.0074 17.25 13.25 17.25Z" fill="white"/>
</g>
<g opacity="0.3" filter="url(#filter1_f)">
<path d="M41.25 39.25C41.6101 39.25 41.9515 39.3349 42.2545 39.487C42.3616 39.6981 42.4367 39.9282 42.4743 40.1724L42.486 40.2623C42.4084 40.2542 42.3296 40.25 42.25 40.25C41.0074 40.25 40 41.2574 40 42.5V55.5L40.0066 55.6679L40.014 55.7377C39.7407 55.7092 39.4815 55.6314 39.2455 55.513C39.1384 55.3019 39.0633 55.0718 39.0257 54.8276L39.0066 54.6679L39 54.5V41.5C39 40.2574 40.0074 39.25 41.25 39.25ZM58.25 52.25C58.6137 52.25 58.9572 52.3363 59.2612 52.4895C59.3802 52.7261 59.4588 52.9871 59.4877 53.2631C59.409 53.2542 59.33 53.25 59.25 53.25C58.0074 53.25 57 54.2574 57 55.5C57 55.58 57.0042 55.659 57.0123 55.7369C56.7371 55.7088 56.4759 55.63 56.2388 55.5105C56.0863 55.2072 56 54.8637 56 54.5C56 53.2574 57.0074 52.25 58.25 52.25ZM29.25 43.05C30.243 43.05 31.2127 43.2422 32.1138 43.614L32.4484 43.7619L32.689 43.882L32.8001 43.7804C32.9967 43.6152 33.2225 43.4838 33.4705 43.392L33.6606 43.3306L33.8584 43.2847L34.0753 43.2572L34.25 43.25C34.6101 43.25 34.9515 43.3349 35.2545 43.487C35.3616 43.6981 35.4367 43.9282 35.4743 44.1724L35.486 44.2623C35.4084 44.2542 35.3296 44.25 35.25 44.25L35.0753 44.2572L34.8584 44.2847L34.6606 44.3306L34.4705 44.392C34.2225 44.4838 33.9967 44.6152 33.8001 44.7804L33.689 44.882L33.4484 44.7619L33.1138 44.614C32.2127 44.2422 31.243 44.05 30.25 44.05C26.2524 44.05 23 47.1547 23 51C23 52.365 23.4098 53.6367 24.1173 54.7092C23.9179 54.5782 23.7265 54.4366 23.5431 54.2864L23.455 54.1776C22.5418 53.0157 22 51.5695 22 50C22 46.1547 25.2524 43.05 29.25 43.05ZM13.25 38.25C13.6094 38.25 13.9511 38.3349 14.2549 38.4877C14.3349 38.6467 14.3978 38.817 14.4406 38.9967L14.4737 39.1609L14.4846 39.2622C14.4074 39.2541 14.3292 39.25 14.25 39.25C13.0074 39.25 12 40.2574 12 41.5V49.7999L12.005 50.1731L12.0201 50.536L12.0465 50.8954C12.1522 52.0751 12.4387 53.0775 12.9338 54.0032C13.0278 54.179 13.1285 54.3496 13.2356 54.5146C13.034 54.3837 12.8407 54.2433 12.6559 54.0938C12.3841 53.7578 12.1425 53.3934 11.9338 53.0032C11.4387 52.0775 11.1522 51.0751 11.0465 49.8954L11.0201 49.536L11.005 49.1731L11 48.7999V40.5C11 39.2574 12.0074 38.25 13.25 38.25ZM48.5326 48.2979C49.4029 48.8131 50 49.8237 50 51C50 52.6975 48.7566 54.05 47.25 54.05C46.3027 54.05 45.4596 53.5154 44.9651 52.6967C44.944 52.6843 44.9232 52.6717 44.9025 52.6587C45.302 52.9082 45.7622 53.05 46.25 53.05C47.7566 53.05 49 51.6975 49 50C49 49.3673 48.8273 48.7825 48.5326 48.2979ZM31.5326 48.2979C32.4029 48.8131 33 49.8237 33 51C33 52.6975 31.7566 54.05 30.25 54.05C29.3027 54.05 28.4596 53.5154 27.9651 52.6967C27.944 52.6843 27.9232 52.6717 27.9025 52.6587C28.302 52.9082 28.7622 53.05 29.25 53.05C30.7566 53.05 32 51.6975 32 50C32 49.3673 31.8273 48.7825 31.5326 48.2979ZM16.89 51.8584L16.869 51.8481C17.2361 52.0444 17.6481 52.1623 18.1745 52.2155L18.4072 52.2343L18.6687 52.2463L19.25 52.25C19.6137 52.25 19.9572 52.3363 20.2612 52.4895C20.3802 52.7261 20.4589 52.9871 20.4877 53.2631C20.4091 53.2542 20.3301 53.25 20.25 53.25L19.6687 53.2463L19.4072 53.2343L19.1745 53.2155C18.6481 53.1623 18.2361 53.0444 17.869 52.8481C17.4463 52.622 17.128 52.3037 16.902 51.881C16.8979 51.8735 16.894 51.866 16.89 51.8584ZM55.6395 28.3148L55.6732 28.3748C56.4506 28.7723 57 29.6567 57 30.7V49.7L57.0066 49.8679L57.014 49.9377C56.7406 49.9091 56.4812 49.8313 56.2451 49.7128C56.1386 49.5026 56.0634 49.2721 56.0257 49.0276L56.0066 48.8679L56 48.7V29.7C56 29.1868 55.8671 28.7121 55.6395 28.3148ZM46.25 43.05C48.0448 43.05 49.6894 43.6758 50.9569 44.7136L51.045 44.8224C51.164 44.9738 51.2767 45.13 51.3827 45.2908C50.2101 44.5078 48.785 44.05 47.25 44.05L46.9161 44.0574L46.5347 44.0836L46.1939 44.1239L45.8575 44.1789C45.412 44.262 44.979 44.3841 44.5618 44.5436L44.498 44.569L44.4995 43.2547C44.6179 43.2266 44.7373 43.2014 44.8575 43.1789L45.1939 43.1239L45.5347 43.0836L45.9161 43.0574L46.25 43.05ZM53.7355 23.2502L53.9823 23.254C55.4683 23.3057 56.8313 23.8516 57.9224 24.737C58.0737 24.9228 58.2158 25.1169 58.3478 25.3185C57.3677 24.6814 56.2175 24.297 54.9823 24.254L54.7355 24.2502L54.442 24.2573L54.0881 24.2833L53.7714 24.3233L53.4589 24.378C52.9416 24.4812 52.443 24.6446 51.9689 24.8655L51.711 24.992L51.6973 24.9798C51.2832 24.6346 50.7784 24.45 50.25 24.45C49.0074 24.45 48 25.4574 48 26.7V35.7L48.0066 35.8679L48.014 35.9377C47.7406 35.9091 47.4812 35.8313 47.2451 35.7128C47.1386 35.5026 47.0634 35.2721 47.0257 35.0276L47.0066 34.8679L47 34.7V25.7C47 24.4574 48.0074 23.45 49.25 23.45C49.7784 23.45 50.2832 23.6346 50.6973 23.9798L50.711 23.992L50.9689 23.8655C51.443 23.6446 51.9416 23.4812 52.4589 23.378L52.7714 23.3233L53.0881 23.2833L53.442 23.2573L53.7355 23.2502ZM13.25 23.25C13.6103 23.25 13.9518 23.335 14.2549 23.4872C14.3614 23.6974 14.4366 23.9279 14.4743 24.1724L14.486 24.2623C14.4084 24.2542 14.3296 24.25 14.25 24.25C13.0074 24.25 12 25.2574 12 26.5V35.5L12.0066 35.6679L12.014 35.7377C11.7406 35.7091 11.4812 35.6313 11.2451 35.5128C11.1386 35.3026 11.0634 35.0721 11.0257 34.8276L11.0066 34.6679L11 34.5V25.5C11 24.2574 12.0074 23.25 13.25 23.25ZM38.25 23.05C40.0448 23.05 41.6894 23.6758 42.9569 24.7136L43.045 24.8224C43.164 24.9738 43.2767 25.13 43.3827 25.2908C42.2101 24.5078 40.785 24.05 39.25 24.05C35.2524 24.05 32 27.1547 32 31C32 32.365 32.4098 33.6367 33.1173 34.7092C32.9179 34.5782 32.7266 34.4366 32.5431 34.2864L32.455 34.1776C31.5418 33.0157 31 31.5695 31 30C31 29.643 31.028 29.2925 31.0821 28.9502C31.3484 28.5451 31.4643 28.0825 31.4337 27.6258C32.4444 24.955 35.1186 23.05 38.25 23.05ZM29.1194 24.627L29.1932 24.7575C29.2508 24.8675 29.2984 24.9812 29.3358 25.0974C26.4877 23.42 22.7283 23.7553 20.2403 26.1205C17.6667 28.5671 17.3077 31.9203 19.1775 34.6334C19.0339 34.535 18.8927 34.4311 18.7546 34.3217L18.6119 34.204C16.2678 31.4035 16.483 27.7418 19.2403 25.1205C21.964 22.5313 26.2115 22.3747 29.1194 24.627ZM29.1543 31.3399C29.2765 31.5852 29.3491 31.8478 29.3724 32.1137C28.7854 32.0513 28.1798 32.2143 27.6994 32.6027L27.5285 32.7529L27.4499 32.8383L27.3152 33.0168L27.1892 33.164C26.671 33.7322 25.982 34.05 25.2503 34.05C24.3053 34.05 23.4598 33.5164 22.963 32.695C22.9422 32.6828 22.9215 32.6703 22.901 32.6574C23.3017 32.908 23.7628 33.05 24.2503 33.05C24.982 33.05 25.671 32.7322 26.1892 32.164L26.3152 32.0168L26.4499 31.8383L26.5285 31.7529L26.6994 31.6027C27.4015 31.0351 28.3711 30.9487 29.1543 31.3399ZM40.5326 28.2979C41.4029 28.8131 42 29.8237 42 31C42 32.6975 40.7566 34.05 39.25 34.05C38.3027 34.05 37.4596 33.5154 36.9651 32.6967C36.944 32.6843 36.9232 32.6717 36.9025 32.6587C37.302 32.9082 37.7622 33.05 38.25 33.05C39.7566 33.05 41 31.6975 41 30C41 29.3673 40.8273 28.7825 40.5326 28.2979ZM13.25 17.25C13.6137 17.25 13.9572 17.3363 14.2612 17.4895C14.3802 17.7261 14.4588 17.9871 14.4877 18.2631C14.409 18.2542 14.33 18.25 14.25 18.25C13.0074 18.25 12 19.2574 12 20.5C12 20.58 12.0042 20.659 12.0123 20.7369C11.7371 20.7088 11.4759 20.63 11.2388 20.5105C11.0863 20.2072 11 19.8637 11 19.5C11 18.2574 12.0074 17.25 13.25 17.25Z" fill="white"/>
</g>
</g>
<defs>
<filter id="filter0_f" x="9" y="15.25" width="52.5" height="42.7" filterUnits="userSpaceOnUse" color-interpolation-filters="sRGB">
<feFlood flood-opacity="0" result="BackgroundImageFix"/>
<feBlend mode="normal" in="SourceGraphic" in2="BackgroundImageFix" result="shape"/>
<feGaussianBlur stdDeviation="1" result="effect1_foregroundBlur"/>
</filter>
<filter id="filter1_f" x="9" y="15.25" width="52.4877" height="42.4877" filterUnits="userSpaceOnUse" color-interpolation-filters="sRGB">
<feFlood flood-opacity="0" result="BackgroundImageFix"/>
<feBlend mode="normal" in="SourceGraphic" in2="BackgroundImageFix" result="shape"/>
<feGaussianBlur stdDeviation="1" result="effect1_foregroundBlur"/>
</filter>
<radialGradient id="paint0_radial" cx="0" cy="0" r="1" gradientUnits="userSpaceOnUse" gradientTransform="translate(-2.19254 -5.08836) scale(75.2854)">
<stop stop-color="#FFEFF4"/>
<stop offset="1" stop-color="#C5AFFF"/>
</radialGradient>
<clipPath id="clip0">
<rect width="72" height="72" fill="white"/>
</clipPath>
</defs>
</svg>
