<svg width="24" height="24" viewBox="0 0 24 24" fill="none" xmlns="http://www.w3.org/2000/svg">
<path fill-rule="evenodd" clip-rule="evenodd" d="M3.78211 4.47517C4.33186 4.18116 4.88524 4 6.62777 4H17.3722C19.1148 4 19.6681 4.18116 20.2179 4.47517C20.7826 4.77719 21.2228 5.21739 21.5248 5.78211C21.7948 6.28692 21.9696 6.7948 21.9964 8.22365L13.3159 13.5973C12.5096 14.0964 11.4904 14.0964 10.6841 13.5973L2.00359 8.22366C2.03037 6.7948 2.20519 6.28692 2.47517 5.78211C2.77719 5.21739 3.21739 4.77719 3.78211 4.47517ZM2 9.39754V15.3722C2 17.1148 2.18116 17.6681 2.47517 18.2179C2.54463 18.3478 2.6214 18.4711 2.7053 18.5876L6.14645 15.1464C6.34171 14.9512 6.65829 14.9512 6.85355 15.1464C7.04882 15.3417 7.04882 15.6583 6.85355 15.8536L3.41241 19.2947C3.52895 19.3786 3.65223 19.4554 3.78211 19.5248C4.33186 19.8188 4.88524 20 6.62777 20H17.3722C19.1148 20 19.6681 19.8188 20.2179 19.5248C20.3478 19.4554 20.4711 19.3786 20.5876 19.2947L17.1464 15.8536C16.9512 15.6583 16.9512 15.3417 17.1464 15.1464C17.3417 14.9512 17.6583 14.9512 17.8536 15.1464L21.2947 18.5876C21.3786 18.4711 21.4554 18.3478 21.5248 18.2179C21.8188 17.6681 22 17.1148 22 15.3722V9.39753L13.8422 14.4476C12.7135 15.1463 11.2865 15.1463 10.1578 14.4476L2 9.39754ZM6.62777 3C4.80422 3 4.06446 3.19014 3.31051 3.59336C2.57152 3.98857 1.98857 4.57152 1.59336 5.31051C1.19014 6.06446 1 6.80422 1 8.62777V15.3722C1 17.1958 1.19014 17.9355 1.59336 18.6895C1.98857 19.4285 2.57152 20.0114 3.31051 20.4066C4.06446 20.8099 4.80422 21 6.62777 21H17.3722C19.1958 21 19.9355 20.8099 20.6895 20.4066C21.4285 20.0114 22.0114 19.4285 22.4066 18.6895C22.8099 17.9355 23 17.1958 23 15.3722V8.62777C23 6.80422 22.8099 6.06446 22.4066 5.31051C22.0114 4.57152 21.4285 3.98857 20.6895 3.59336C19.9355 3.19014 19.1958 3 17.3722 3H6.62777Z" fill="#522699"/>
</svg>
