<svg width="17" height="16" viewBox="0 0 17 16" fill="none" xmlns="http://www.w3.org/2000/svg">
<path d="M12.4731 1.36837C12.799 1.58822 13.1061 1.82968 13.3928 2.0908L13.3926 0.893884C13.3926 0.525735 13.6911 0.227295 14.0592 0.227285H15.3924C15.7606 0.227285 16.059 0.525731 16.059 0.893884V6.22668C16.059 6.59483 15.7606 6.89328 15.3924 6.89328H10.0596C9.69147 6.89328 9.39302 6.59483 9.39302 6.22668V4.89348C9.39306 4.52534 9.69148 4.2269 10.0596 4.22685L11.7699 4.22641C11.5308 3.98825 11.2676 3.77152 10.9821 3.57891C8.54036 1.93197 5.22586 2.57624 3.57891 5.01794C1.93197 7.45964 2.57624 10.7741 5.01794 12.4211C7.23917 13.9193 10.1827 13.5214 11.936 11.5991C11.9711 11.5607 12.0104 11.5151 12.0538 11.4623C12.26 11.2115 12.6143 11.1477 12.893 11.3033L12.9414 11.333L14.0526 12.0826L14.0911 12.1105C14.3808 12.3376 14.4317 12.7566 14.2046 13.0464L14.1293 13.1405C14.118 13.1542 14.1074 13.167 14.0973 13.1789C11.4948 16.2506 6.94178 16.935 3.52691 14.6316C-0.135637 12.1612 -1.10205 7.18946 1.36837 3.52691C3.83879 -0.135637 8.81054 -1.10205 12.4731 1.36837Z" fill="#522699"/>
</svg>
