<?xml version="1.0" standalone="no"?>
<!DOCTYPE svg PUBLIC "-//W3C//DTD SVG 20010904//EN"
 "http://www.w3.org/TR/2001/REC-SVG-20010904/DTD/svg10.dtd">
<svg version="1.0" xmlns="http://www.w3.org/2000/svg"
 width="380.000000pt" height="380.000000pt" viewBox="0 0 380.000000 380.000000"
 preserveAspectRatio="xMidYMid meet">
<metadata>
Created by potrace 1.14, written by Peter Selinger 2001-2017
</metadata>
<g transform="translate(0.000000,380.000000) scale(0.100000,-0.100000)"
fill="#000000" stroke="none">
<path d="M214 3216 c-100 -44 -119 -182 -35 -257 45 -40 92 -53 144 -38 101
28 150 147 94 230 -48 72 -128 97 -203 65z"/>
<path d="M975 2810 c-272 -59 -459 -306 -417 -551 41 -237 275 -429 522 -429
173 0 396 120 415 224 18 92 -39 178 -127 191 -57 9 -125 -18 -156 -63 -27
-37 -96 -72 -145 -72 -105 0 -197 100 -197 215 0 51 27 124 58 158 29 32 89
57 138 57 54 0 121 -34 148 -74 22 -34 86 -66 131 -66 84 0 157 71 157 154 0
74 -44 131 -145 190 -102 60 -274 90 -382 66z"/>
<path d="M1955 2810 c-109 -22 -202 -76 -284 -166 -87 -95 -121 -185 -121
-321 0 -246 182 -448 438 -485 334 -49 632 236 582 558 -43 280 -327 471 -615
414z m172 -281 c73 -27 126 -113 126 -204 0 -184 -192 -281 -322 -162 -82 76
-82 247 1 324 54 50 130 67 195 42z"/>
<path d="M214 2790 c-31 -12 -72 -66 -84 -111 -7 -26 -10 -158 -8 -377 3 -319
4 -339 24 -372 62 -106 213 -106 273 0 20 36 21 50 21 395 0 399 -1 404 -69
451 -37 25 -113 32 -157 14z"/>
<path d="M3006 2779 c-57 -20 -61 -20 -97 -3 -47 21 -120 15 -158 -13 -14 -11
-36 -39 -48 -63 -23 -43 -23 -51 -23 -390 0 -339 0 -347 23 -390 29 -59 92
-93 156 -87 49 5 86 29 119 77 21 32 22 42 22 239 0 220 7 266 46 319 36 46
78 65 132 59 52 -6 89 -31 117 -78 19 -33 20 -57 25 -764 6 -816 1 -768 77
-820 73 -49 178 -23 222 55 21 37 21 43 21 747 0 781 1 767 -63 887 -45 85
-120 157 -213 203 -74 36 -83 38 -188 41 -92 2 -121 -1 -170 -19z"/>
<path d="M213 1720 c-24 -12 -53 -38 -65 -58 -23 -37 -23 -40 -23 -402 0 -396
4 -433 56 -548 38 -86 141 -188 229 -229 83 -40 150 -53 259 -53 96 0 132 15
175 73 29 39 28 126 0 164 -39 53 -76 70 -166 75 -94 6 -140 22 -181 63 -52
53 -57 95 -57 467 0 375 -1 385 -62 432 -49 37 -111 43 -165 16z"/>
<path d="M2203 1649 c-24 -12 -52 -37 -65 -57 l-23 -37 2 -509 c3 -567 0 -545
73 -593 42 -29 121 -31 165 -5 29 18 31 18 97 -5 188 -65 390 -24 533 110 116
107 161 221 153 383 -4 80 -10 103 -43 173 -93 198 -317 317 -533 283 -42 -7
-90 -15 -106 -18 l-29 -7 7 61 c12 114 -24 195 -101 228 -45 19 -81 17 -130
-7z m530 -565 c109 -77 122 -236 28 -337 -38 -42 -73 -57 -132 -57 -126 0
-214 117 -189 251 28 152 177 224 293 143z"/>
<path d="M1340 1393 c-59 -10 -153 -47 -207 -82 -145 -94 -223 -235 -223 -400
1 -150 40 -243 144 -346 133 -131 296 -179 478 -141 36 8 80 22 97 30 28 15
32 15 63 -4 44 -27 122 -27 166 0 68 42 68 43 77 430 7 371 5 400 -39 448 -49
55 -142 69 -204 32 -31 -19 -35 -19 -63 -4 -64 33 -206 51 -289 37z m157 -292
c24 -11 55 -37 72 -61 104 -144 19 -350 -146 -350 -60 0 -96 15 -134 57 -44
46 -62 93 -61 153 1 94 44 168 116 201 52 24 100 24 153 0z"/>
<path d="M3403 720 c-106 -64 -101 -219 9 -276 15 -8 49 -14 75 -14 120 0 190
126 131 232 -41 72 -146 101 -215 58z"/>
</g>
</svg>
