<svg width="24" height="24" viewBox="0 0 24 24" fill="none" xmlns="http://www.w3.org/2000/svg">
<path fill-rule="evenodd" clip-rule="evenodd" d="M2.5 11C2.5 6.30558 6.30558 2.5 11 2.5C15.6944 2.5 19.5 6.30558 19.5 11C19.5 15.6944 15.6944 19.5 11 19.5C6.30558 19.5 2.5 15.6944 2.5 11ZM11 1.5C5.75329 1.5 1.5 5.75329 1.5 11C1.5 16.2467 5.75329 20.5 11 20.5C13.4435 20.5 15.6715 19.5775 17.3547 18.0618L21.1464 21.8535C21.3417 22.0488 21.6583 22.0488 21.8536 21.8535C22.0488 21.6582 22.0488 21.3417 21.8536 21.1464L18.0618 17.3547C19.5775 15.6714 20.5 13.4434 20.5 11C20.5 5.75329 16.2467 1.5 11 1.5Z" fill="#522699"/>
</svg>
