<svg width="24" height="24" viewBox="0 0 24 24" fill="none" xmlns="http://www.w3.org/2000/svg">
<path fill-rule="evenodd" clip-rule="evenodd" d="M10.655 3.59567C11.2052 2.48081 12.795 2.4808 13.3452 3.59567L15.4486 7.85765C15.5214 8.00522 15.6622 8.10751 15.8251 8.13117L20.5284 8.81461C21.7588 8.99339 22.25 10.5053 21.3598 11.3732L17.9564 14.6906C17.8385 14.8055 17.7848 14.971 17.8126 15.1332L18.616 19.8176C18.8262 21.0429 17.54 21.9774 16.4396 21.3988L12.2328 19.1872C12.0871 19.1106 11.9131 19.1106 11.7674 19.1872L7.5606 21.3988C6.46016 21.9774 5.17401 21.0429 5.38417 19.8176L6.1876 15.1332C6.21542 14.971 6.16165 14.8055 6.0438 14.6906L2.64041 11.3732C1.75014 10.5053 2.2414 8.99339 3.47173 8.81461L8.1751 8.13117C8.33796 8.10751 8.47874 8.00522 8.55157 7.85765L10.655 3.59567ZM12.4485 4.03824C12.2651 3.66662 11.7351 3.66662 11.5517 4.03824L9.44831 8.30022C9.22982 8.74293 8.80747 9.04979 8.3189 9.12078L3.61553 9.80422C3.20542 9.86381 3.04167 10.3678 3.33842 10.6571L6.74182 13.9746C7.09535 14.3192 7.25667 14.8157 7.17321 15.3023L6.36978 19.9866C6.29972 20.3951 6.72844 20.7066 7.09525 20.5137L11.3021 18.302C11.7391 18.0723 12.2611 18.0723 12.6981 18.302L16.9049 20.5137C17.2717 20.7066 17.7005 20.3951 17.6304 19.9866L16.827 15.3023C16.7435 14.8157 16.9048 14.3192 17.2584 13.9746L20.6618 10.6571C20.9585 10.3678 20.7948 9.86381 20.3846 9.80422L15.6813 9.12078C15.1927 9.04979 14.7704 8.74293 14.5519 8.30022L12.4485 4.03824Z" fill="#522699"/>
</svg>
