<svg width="24" height="24" viewBox="0 0 24 24" fill="none" xmlns="http://www.w3.org/2000/svg">
<path d="M12 1C18.0566 1 23 5.40744 23 10.8816C23 13.788 21.5927 16.5103 19.1872 18.3613L19.1472 18.3936C19.1245 18.4144 19.1115 18.4438 19.1115 18.4747L19.1111 21.4685C19.111 22.2855 18.1843 22.7577 17.5233 22.2774L14.9878 20.4353C14.9613 20.4161 14.9275 20.4094 14.8955 20.4172C13.9561 20.6469 12.9848 20.7632 12 20.7632C5.94341 20.7632 1 16.3557 1 10.8816C1 5.40744 5.94341 1 12 1ZM8 10C7.44772 10 7 10.4477 7 11C7 11.5523 7.44772 12 8 12C8.55228 12 9 11.5523 9 11C9 10.4477 8.55228 10 8 10ZM12 10C11.4477 10 11 10.4477 11 11C11 11.5523 11.4477 12 12 12C12.5523 12 13 11.5523 13 11C13 10.4477 12.5523 10 12 10ZM16 10C15.4477 10 15 10.4477 15 11C15 11.5523 15.4477 12 16 12C16.5523 12 17 11.5523 17 11C17 10.4477 16.5523 10 16 10Z" fill="#7FD7FF"/>
</svg>
