<svg width="32" height="32" viewBox="0 0 32 32" fill="none" xmlns="http://www.w3.org/2000/svg">
<path d="M15.203 15C16.1756 15 16.5283 15.1013 16.8838 15.2914C17.2394 15.4816 17.5184 15.7606 17.7086 16.1162C17.8987 16.4717 18 16.8244 18 17.797V24.203C18 25.1756 17.8987 25.5283 17.7086 25.8838C17.5184 26.2394 17.2394 26.5184 16.8838 26.7086C16.5283 26.8987 16.1756 27 15.203 27H8.79697C7.8244 27 7.47172 26.8987 7.11617 26.7086C6.76061 26.5184 6.48157 26.2394 6.29142 25.8838C6.11589 25.5556 6.01611 25.2299 6.00179 24.4168L6 17.797C6 16.8244 6.10126 16.4717 6.29142 16.1162C6.48157 15.7606 6.76061 15.4816 7.11617 15.2914C7.44437 15.1159 7.77013 15.0161 8.58325 15.0018L15.203 15ZM22.8046 6C24.2634 6 24.7924 6.1519 25.3257 6.43713C25.8591 6.72236 26.2776 7.14092 26.5629 7.67425C26.8481 8.20759 27 8.7366 27 10.1954V19.8046C27 21.2634 26.8481 21.7924 26.5629 22.3257C26.2776 22.8591 25.8591 23.2776 25.3257 23.5629C24.7924 23.8481 24.2634 24 22.8046 24H20V17.797C20 16.6083 19.8645 15.9064 19.4722 15.173C19.0957 14.4689 18.5311 13.9043 17.827 13.5278C17.0936 13.1355 16.3917 13 15.203 13H9V10.1954C9 8.7366 9.1519 8.20759 9.43713 7.67425C9.72236 7.14092 10.1409 6.72236 10.6743 6.43713C11.2076 6.1519 11.7366 6 13.1954 6H22.8046Z" fill="#DBCBF5"/>
</svg>
