<svg width="32" height="32" viewBox="0 0 32 32" fill="none" xmlns="http://www.w3.org/2000/svg">
<path d="M10.6616 6H21.3384C22.9593 6 23.5471 6.16877 24.1397 6.4857C24.7323 6.80262 25.1974 7.26769 25.5143 7.86028C25.8312 8.45287 26 9.04067 26 10.6616V21.3384C26 22.9593 25.8312 23.5471 25.5143 24.1397C25.1974 24.7323 24.7323 25.1974 24.1397 25.5143C23.5471 25.8312 22.9593 26 21.3384 26H10.6616C9.04067 26 8.45287 25.8312 7.86028 25.5143C7.26769 25.1974 6.80262 24.7323 6.4857 24.1397C6.16877 23.5471 6 22.9593 6 21.3384V10.6616C6 9.04067 6.16877 8.45287 6.4857 7.86028C6.80262 7.26769 7.26769 6.80262 7.86028 6.4857C8.45287 6.16877 9.04067 6 10.6616 6Z" fill="#DBCBF5"/>
</svg>
