<svg width="32" height="32" viewBox="0 0 32 32" fill="none" xmlns="http://www.w3.org/2000/svg">
<path d="M24.203 15C25.1756 15 25.5283 15.1013 25.8838 15.2914C26.2394 15.4816 26.5184 15.7606 26.7086 16.1162C26.8987 16.4717 27 16.8244 27 17.797V24.203C27 25.1756 26.8987 25.5283 26.7086 25.8838C26.5184 26.2394 26.2394 26.5184 25.8838 26.7086C25.5283 26.8987 25.1756 27 24.203 27H17.797C16.8244 27 16.4717 26.8987 16.1162 26.7086C15.7606 26.5184 15.4816 26.2394 15.2914 25.8838C15.1013 25.5283 15 25.1756 15 24.203V17.797C15 16.8244 15.1013 16.4717 15.2914 16.1162C15.4816 15.7606 15.7606 15.4816 16.1162 15.2914C16.4717 15.1013 16.8244 15 17.797 15H24.203ZM19.8046 6C21.2634 6 21.7924 6.1519 22.3257 6.43713C22.8591 6.72236 23.2776 7.14092 23.5629 7.67425C23.8481 8.20759 24 8.7366 24 10.1954V13H17.6783C16.4904 13 15.8087 13.1316 15.0969 13.5123C14.4184 13.8752 13.8752 14.4184 13.5123 15.0969C13.1316 15.8087 13 16.4904 13 17.6783L12.999 24H10.1954C8.7366 24 8.20759 23.8481 7.67425 23.5629C7.14092 23.2776 6.72236 22.8591 6.43713 22.3257C6.1519 21.7924 6 21.2634 6 19.8046V10.1954C6 8.7366 6.1519 8.20759 6.43713 7.67425C6.72236 7.14092 7.14092 6.72236 7.67425 6.43713C8.20759 6.1519 8.7366 6 10.1954 6H19.8046Z" fill="#DBCBF5"/>
</svg>
